<?xml version="1.0" encoding="UTF-8" standalone="no"?>
<!-- Created with Inkscape (http://www.inkscape.org/) -->

<svg
   xmlns:dc="http://purl.org/dc/elements/1.1/"
   xmlns:cc="http://creativecommons.org/ns#"
   xmlns:rdf="http://www.w3.org/1999/02/22-rdf-syntax-ns#"
   xmlns:svg="http://www.w3.org/2000/svg"
   xmlns="http://www.w3.org/2000/svg"
   xmlns:xlink="http://www.w3.org/1999/xlink"
   xmlns:sodipodi="http://sodipodi.sourceforge.net/DTD/sodipodi-0.dtd"
   xmlns:inkscape="http://www.inkscape.org/namespaces/inkscape"
   width="166.47252mm"
   height="165.17642mm"
   id="svg2"
   version="1.1"
   inkscape:version="0.92.3 (2405546, 2018-03-11)"
   sodipodi:docname="blueicon.svg">
  <defs
     id="defs4">
    <linearGradient
       inkscape:collect="always"
       id="linearGradient1735">
      <stop
         style="stop-color:#0000ff;stop-opacity:1;"
         offset="0"
         id="stop1731" />
      <stop
         style="stop-color:#0000ff;stop-opacity:0;"
         offset="1"
         id="stop1733" />
    </linearGradient>
    <linearGradient
       id="linearGradient3860"
       inkscape:collect="always">
      <stop
         id="stop3862"
         offset="0"
         style="stop-color:#000000;stop-opacity:1;" />
      <stop
         style="stop-color:#000000;stop-opacity:0.76078431;"
         offset="0.30564123"
         id="stop3868" />
      <stop
         style="stop-color:#000000;stop-opacity:0.59607843;"
         offset="0.66596925"
         id="stop3866" />
      <stop
         id="stop3864"
         offset="1"
         style="stop-color:#000000;stop-opacity:0;" />
    </linearGradient>
    <linearGradient
       inkscape:collect="always"
       id="linearGradient3778">
      <stop
         style="stop-color:#000000;stop-opacity:1;"
         offset="0"
         id="stop3780" />
      <stop
         style="stop-color:#000000;stop-opacity:0;"
         offset="1"
         id="stop3782" />
    </linearGradient>
    <linearGradient
       inkscape:collect="always"
       xlink:href="#linearGradient3778"
       id="linearGradient3784"
       x1="74.90625"
       y1="526.17188"
       x2="669.1875"
       y2="526.17188"
       gradientUnits="userSpaceOnUse" />
    <linearGradient
       inkscape:collect="always"
       xlink:href="#linearGradient3778"
       id="linearGradient3837"
       gradientUnits="userSpaceOnUse"
       x1="74.90625"
       y1="526.17188"
       x2="669.1875"
       y2="526.17188" />
    <linearGradient
       inkscape:collect="always"
       xlink:href="#linearGradient3778"
       id="linearGradient3840"
       gradientUnits="userSpaceOnUse"
       x1="74.90625"
       y1="526.17188"
       x2="669.1875"
       y2="526.17188" />
    <linearGradient
       inkscape:collect="always"
       xlink:href="#linearGradient3778"
       id="linearGradient3843"
       gradientUnits="userSpaceOnUse"
       x1="74.90625"
       y1="526.17188"
       x2="669.1875"
       y2="526.17188" />
    <linearGradient
       inkscape:collect="always"
       xlink:href="#linearGradient3778"
       id="linearGradient3846"
       gradientUnits="userSpaceOnUse"
       x1="74.90625"
       y1="526.17188"
       x2="669.1875"
       y2="526.17188" />
    <linearGradient
       inkscape:collect="always"
       xlink:href="#linearGradient3778"
       id="linearGradient3849"
       gradientUnits="userSpaceOnUse"
       x1="74.90625"
       y1="526.17188"
       x2="669.1875"
       y2="526.17188" />
    <linearGradient
       inkscape:collect="always"
       xlink:href="#linearGradient3778"
       id="linearGradient3852"
       gradientUnits="userSpaceOnUse"
       x1="74.90625"
       y1="526.17188"
       x2="669.1875"
       y2="526.17188" />
    <linearGradient
       inkscape:collect="always"
       xlink:href="#linearGradient3778"
       id="linearGradient3855"
       gradientUnits="userSpaceOnUse"
       x1="74.90625"
       y1="526.17188"
       x2="669.1875"
       y2="526.17188" />
    <radialGradient
       inkscape:collect="always"
       xlink:href="#linearGradient3860"
       id="radialGradient3858"
       cx="372.04688"
       cy="526.17188"
       fx="372.04688"
       fy="526.17188"
       r="297.14062"
       gradientUnits="userSpaceOnUse"
       gradientTransform="matrix(1.0570002,-0.06347659,0.0813382,1.3544281,-64.004582,-162.87386)" />
    <linearGradient
       inkscape:collect="always"
       xlink:href="#linearGradient1735"
       id="linearGradient1737"
       x1="45.61607"
       y1="536.33032"
       x2="814.1875"
       y2="536.33032"
       gradientUnits="userSpaceOnUse" />
  </defs>
  <sodipodi:namedview
     id="base"
     pagecolor="#ffffff"
     bordercolor="#666666"
     borderopacity="1.0"
     inkscape:pageopacity="0.0"
     inkscape:pageshadow="2"
     inkscape:zoom="1.4"
     inkscape:cx="454.20808"
     inkscape:cy="201.9327"
     inkscape:document-units="px"
     inkscape:current-layer="layer1"
     showgrid="false"
     inkscape:window-width="3200"
     inkscape:window-height="1673"
     inkscape:window-x="0"
     inkscape:window-y="0"
     inkscape:window-maximized="1"
     showguides="true"
     inkscape:guide-bbox="true"
     inkscape:object-paths="false"
     inkscape:snap-smooth-nodes="true"
     inkscape:pagecheckerboard="true"
     fit-margin-top="0"
     fit-margin-left="0"
     fit-margin-right="0"
     fit-margin-bottom="0" />
  <metadata
     id="metadata7">
    <rdf:RDF>
      <cc:Work
         rdf:about="">
        <dc:format>image/svg+xml</dc:format>
        <dc:type
           rdf:resource="http://purl.org/dc/dcmitype/StillImage" />
        <dc:title></dc:title>
      </cc:Work>
    </rdf:RDF>
  </metadata>
  <g
     inkscape:label="Capa 1"
     inkscape:groupmode="layer"
     id="layer1"
     transform="translate(-24.1875,-214.89865)">
    <path
       style="fill:url(#linearGradient1737);fill-opacity:1;stroke:#ffffff;stroke-width:10;stroke-miterlimit:4;stroke-dasharray:none;stroke-opacity:1"
       d="m 332.375,219.90625 c -167.80077,2.12546 -303.1875,138.81992 -303.1875,307.125 0,169.63031 137.52594,307.15625 307.15625,307.15625 38.4983,0 75.32367,-7.12852 109.28125,-20.0625 -23.52951,5.99353 -48.16607,9.1875 -73.5625,9.1875 -164.10747,0 -297.15625,-133.01754 -297.15625,-297.125 0,-164.10747 133.04878,-297.15625 297.15625,-297.15625 20.42441,0 40.36023,2.0436 59.625,5.96875 -30.01984,-9.79606 -62.05319,-15.09375 -95.34375,-15.09375 -1.32524,0 -2.64748,-0.0167 -3.96875,0 z m 39.6875,34 c -35.50402,0 -64.3125,28.77723 -64.3125,64.28125 0,35.50402 28.80848,64.28125 64.3125,64.28125 35.50402,0 64.28125,-28.77723 64.28125,-64.28125 0,-35.50402 -28.77723,-64.28125 -64.28125,-64.28125 z M 212.625,315.625 c -35.50402,0 -64.28125,28.77723 -64.28125,64.28125 0,35.50402 28.77723,64.28125 64.28125,64.28125 35.50402,0 64.28125,-28.77723 64.28125,-64.28125 0,-35.50402 -28.77723,-64.28125 -64.28125,-64.28125 z m 325.4375,12.28125 c -35.50402,0 -64.3125,28.77723 -64.3125,64.28125 0,35.50402 28.80848,64.28125 64.3125,64.28125 35.50402,0 64.28125,-28.77723 64.28125,-64.28125 0,-35.50402 -28.77723,-64.28125 -64.28125,-64.28125 z m -166,64 c -74.95293,0 -135.71875,60.12148 -135.71875,134.28125 0,74.15977 60.76582,134.28125 135.71875,134.28125 74.95293,0 135.6875,-60.12148 135.6875,-134.28125 0,-74.15977 -60.73457,-134.28125 -135.6875,-134.28125 z M 167.75,480.1875 c -35.50402,0 -64.28125,28.77723 -64.28125,64.28125 0,35.50402 28.77723,64.28125 64.28125,64.28125 35.50402,0 64.3125,-28.77723 64.3125,-64.28125 0,-35.50402 -28.80848,-64.28125 -64.3125,-64.28125 z m 416.3125,7.71875 c -35.54967,0 -64.3125,28.77723 -64.3125,64.28125 0,35.50402 28.76283,64.28125 64.3125,64.28125 35.54967,0 64.3125,-28.79964 64.3125,-64.28125 -10e-6,-35.48161 -28.76283,-64.28125 -64.3125,-64.28125 z M 223.75,616.75 c -35.50402,0 -64.28125,28.77723 -64.28125,64.28125 0,35.50402 28.77723,64.28125 64.28125,64.28125 35.50402,0 64.3125,-28.77723 64.3125,-64.28125 0,-35.50402 -28.80848,-64.28125 -64.3125,-64.28125 z m 289.71875,14.28125 c -35.50402,0 -64.28125,28.77723 -64.28125,64.28125 0,35.50402 28.77723,64.3125 64.28125,64.3125 12.81985,0 24.75356,-3.77893 34.78125,-10.25 7.35818,-7.0154 14.36587,-14.415 21,-22.125 5.3962,-9.41305 8.5,-20.31263 8.5,-31.9375 0,-35.50402 -28.77723,-64.28125 -64.28125,-64.28125 z m -148.5625,44.875 c -35.50402,0 -64.28125,28.77723 -64.28125,64.28125 0,35.50402 28.77723,64.28125 64.28125,64.28125 35.50402,0 64.28125,-28.77723 64.28125,-64.28125 0,-35.50402 -28.77723,-64.28125 -64.28125,-64.28125 z"
       id="path3870"
       inkscape:connector-curvature="0"
       sodipodi:nodetypes="csscssscscssssssssssssssssssssssssszszzzssssssssccsssssss" />
  </g>
</svg>
